<svg xmlns="http://www.w3.org/2000/svg" viewBox="0 0 397.8 311.2" fill="none">
  <linearGradient id="solana-a" x1="360.9" x2="141.0" y1="351.5" y2="-69.2" gradientUnits="userSpaceOnUse">
    <stop stop-color="#00FFA3"/>
    <stop offset="1" stop-color="#DC1FFF"/>
  </linearGradient>
  <path fill="url(#solana-a)" d="M64.6 237.9c2.4-2.4 5.7-3.8 9.2-3.8h317.4c5.8 0 8.7 7 4.6 11.1l-62.7 62.7c-2.4 2.4-5.7 3.8-9.2 3.8H6.5c-5.8 0-8.7-7-4.6-11.1l62.7-62.7z"/>
  <linearGradient id="solana-b" x1="264.1" x2="44.2" y1="401.1" y2="-19.6" gradientUnits="userSpaceOnUse">
    <stop stop-color="#00FFA3"/>
    <stop offset="1" stop-color="#DC1FFF"/>
  </linearGradient>
  <path fill="url(#solana-b)" d="M64.6 3.8C67.1 1.4 70.4 0 73.8 0h317.4c5.8 0 8.7 7 4.6 11.1l-62.7 62.7c-2.4 2.4-5.7 3.8-9.2 3.8H6.5c-5.8 0-8.7-7-4.6-11.1L64.6 3.8z"/>
  <linearGradient id="solana-c" x1="312.4" x2="92.5" y1="376.3" y2="-44.4" gradientUnits="userSpaceOnUse">
    <stop stop-color="#00FFA3"/>
    <stop offset="1" stop-color="#DC1FFF"/>
  </linearGradient>
  <path fill="url(#solana-c)" d="M333.2 120.1c-2.4-2.4-5.7-3.8-9.2-3.8H6.6c-5.8 0-8.7 7-4.6 11.1l62.7 62.7c2.4 2.4 5.7 3.8 9.2 3.8h317.4c5.8 0 8.7-7 4.6-11.1l-62.7-62.7z"/>
</svg>
